<svg id="图层_1" data-name="图层 1" xmlns="http://www.w3.org/2000/svg" xmlns:xlink="http://www.w3.org/1999/xlink" viewBox="0 0 150.19 63.53"><defs><style>.cls-1{fill:none;}.cls-2{fill:url(#新建渐变色板_2);}.cls-3{clip-path:url(#clip-path);}.cls-4{fill:#fff;}</style><linearGradient id="新建渐变色板_2" x1="9.3" y1="9.3" x2="54.22" y2="54.22" gradientUnits="userSpaceOnUse"><stop offset="0" stop-color="#0688ff"/><stop offset="1" stop-color="#002dff"/></linearGradient><clipPath id="clip-path"><path id="SVGID" class="cls-1" d="M30.4,0a31.76,31.76,0,1,0,33,30.46A31.76,31.76,0,0,0,30.4,0ZM48.28,40.34a18.47,18.47,0,1,1-7.77-24.94A18.47,18.47,0,0,1,48.28,40.34Z"/></clipPath></defs><title>shuxi-mini-h</title><path d="M92.82,46a10,10,0,0,1-2.62-.31,18,18,0,0,1-3.45-1.5l-.69-.36.67-.39A23.43,23.43,0,0,0,90.49,41a3.49,3.49,0,0,0,.78-2.43v-1h1.34V35.2H91.27V33.66H88.65V35.2H78.25V33.66H75.63V35.2h-1.3v2.36h1.3V38a9.16,9.16,0,0,0,.07,1.41,4,4,0,0,0,2.13,2.69l3.37,2-.74.35a12.42,12.42,0,0,1-5,1.44H74.33v2.36A25.83,25.83,0,0,0,78.5,48a14.44,14.44,0,0,0,3.22-1.32l1.71-.88.21-.11.21.12c2.8,1.58,3.32,1.83,3.43,1.87a12.91,12.91,0,0,0,4.22.55H93V46Zm-9.23-3.63-2.73-1.48a7.78,7.78,0,0,1-2-1.43,2.43,2.43,0,0,1-.51-1.36l0-.47H88.66l0,.47a2.68,2.68,0,0,1-1.45,2Z"/><path d="M109.91,47.95a18,18,0,0,1-6.79-4.3l-.29-.3-.31.28a20.8,20.8,0,0,1-3.75,2.81,30.6,30.6,0,0,1-3.49,1.49V45.08a19.18,19.18,0,0,0,5.52-3.84L101,41l-.16-.29A31.07,31.07,0,0,1,98.06,34c-.31-1.13-.85-3.64-1.61-7.45h2.76c.62,3.06,1,5,1.2,5.77a35.87,35.87,0,0,0,1.94,5.6l.38.87.41-.86a17.92,17.92,0,0,0,1.46-4.51A45.7,45.7,0,0,0,105.2,27l.21-6.45h-6.7l-.11.27a9.64,9.64,0,0,1-2.22,3.65,6.93,6.93,0,0,1-2.78,1.35V23a3.55,3.55,0,0,0,2-2.14,47.82,47.82,0,0,0,1.56-5.53H100l-.59,2.39H110v2.79h-1.6l-.3,6.59a42.88,42.88,0,0,1-1.08,8,22.51,22.51,0,0,1-2.31,5.77l-.15.27.21.23a17.1,17.1,0,0,0,5.16,3.63Z"/><path d="M75.14,29.21A1.32,1.32,0,0,0,76,27.87V26.7h2.81v1.17A4.11,4.11,0,0,1,75.14,32Z"/><path d="M92.25,32a4.1,4.1,0,0,1-2.57-1.25,4.19,4.19,0,0,1-1.15-3v-1h2.77v1.19a1.28,1.28,0,0,0,.95,1.32Z"/><polygon points="82.27 31.81 82.27 24.12 74.33 24.12 74.33 21.33 82.27 21.33 82.27 15.5 85.06 15.5 85.06 21.33 92.06 21.33 92.06 24.12 85.06 24.12 85.06 31.81 82.27 31.81"/><polygon points="75.14 18.55 75.17 15.56 77.93 15.56 77.93 18.55 75.14 18.55"/><polygon points="89.4 18.47 89.42 15.5 92.19 15.5 92.19 18.47 89.4 18.47"/><path d="M150.17,27.93c0-2.65-.92-4.3-2.81-5.05a8.4,8.4,0,0,0-2.71-.38h-.42V18.16h5.95V15.36H130.77v2.79h5.63V22.5H136a6.77,6.77,0,0,0-2.31.3,4.87,4.87,0,0,0-2.23,1.83,5.62,5.62,0,0,0-.66,3V42.89c0,2.13.63,3.57,1.92,4.4a4.38,4.38,0,0,0,2.35.82h10.37a4.58,4.58,0,0,0,3.41-1.36,4.69,4.69,0,0,0,1.37-3.53Zm-5.95-2.68.46,0a3,3,0,0,1,1.72.59,3.29,3.29,0,0,1,1,2.66v9.52H145.8a1.44,1.44,0,0,1-1.6-1.56Zm-5.39-7.1h3V22.5h-3Zm-5.27,9.93a2.55,2.55,0,0,1,2.33-2.76l.5-.09v6.12a10,10,0,0,1-.5,3.43,6.52,6.52,0,0,1-1.6,2.21l-.73.72ZM146.68,44.5a3.32,3.32,0,0,1-2.44.81h-8a2.63,2.63,0,0,1-1.95-.69,2.94,2.94,0,0,1-.72-2.18l0-1.56.2-.12a21.5,21.5,0,0,0,2-1.43,7.65,7.65,0,0,0,1.92-2.45,12.21,12.21,0,0,0,1.12-5.53V25.29h3v12.6a2.92,2.92,0,0,0,.85,2.12,2.87,2.87,0,0,0,2.21.85h2.5l0,1.59A2.77,2.77,0,0,1,146.68,44.5Z"/><rect x="125.63" y="23.66" width="2.24" height="24.31"/><polygon points="120.36 47.97 120.36 20.88 114.9 20.88 114.9 18.09 120.36 18.09 120.36 15.3 123.15 15.3 123.15 18.09 128.09 18.09 128.09 20.88 123.15 20.88 123.15 47.97 120.36 47.97"/><path d="M114.53,45.25a.93.93,0,0,0,.51-.4,3.21,3.21,0,0,0,.32-1.6l.27-19.51h2.52l-.27,20.52A3.49,3.49,0,0,1,116.56,47a3.72,3.72,0,0,1-2,.82Z"/><path class="cls-2" d="M31.76,0A31.76,31.76,0,1,0,63.53,31.76,31.76,31.76,0,0,0,31.76,0ZM48,41a18.47,18.47,0,1,1-6.76-25.23A18.47,18.47,0,0,1,48,41Z"/><g class="cls-3"><path class="cls-4" d="M57.34,26.43a.79.79,0,0,0-.51.34l-10.27-3.5,1-5.43A1.3,1.3,0,1,0,47,15.32L42.56,8.51l0,0a1,1,0,1,0-1.62,0l-7.5,10.34-19.8-6.75a1.07,1.07,0,1,0-1,.89l.13,0,7.9,23.49-5.86,8.07a1.91,1.91,0,1,0,.75,2.8l9.58,4.24a.76.76,0,0,0,.11.37.78.78,0,0,0,.74.35L27.61,57a.84.84,0,0,0-.12.08.89.89,0,1,0,1.29.06l2.38-2.46a.78.78,0,0,0,.27.13.77.77,0,0,0,.69-.18l6,2.66A1.78,1.78,0,1,0,40.6,56.2l2.51-13.88,14-14.43a.78.78,0,0,0,.54.1.79.79,0,0,0-.3-1.56ZM41.55,8.87a1,1,0,0,0,.44,0l4.46,6.8a1.29,1.29,0,0,0,.41,2l-1,5.33L34.16,19Zm-9.6,44.47a.75.75,0,0,0-.14-.07.77.77,0,0,0-.66.14l-4.45-2a.76.76,0,0,0-.11-.39.77.77,0,0,0-.73-.35L21.21,36.88,34,19.34l11.88,4.05L42.35,42.6ZM13.12,12.82a1.07,1.07,0,0,0,.44-.44l19.7,6.72-12.32,17ZM15.4,44.89,21,37.23l4.57,13.58h0a.74.74,0,0,0-.08.07l-9.57-4.24a1.86,1.86,0,0,0-.47-1.75Zm10.95,7.24h0l.06-.06,4.44,2a.77.77,0,0,0,.08.35L28.5,56.9a.87.87,0,0,0-.57-.06ZM39.92,56a1.78,1.78,0,0,0-1.47.63L32.38,54a.76.76,0,0,0-.16-.41l10-10.35ZM46.5,23.62,56.71,27.1a.78.78,0,0,0,0,.26.79.79,0,0,0,.13.3l-13.61,14Z"/><circle class="cls-4" cx="15.1" cy="54.81" r="0.71" transform="translate(-33.33 25.03) rotate(-43)"/><circle class="cls-4" cx="48.15" cy="13.91" r="0.71" transform="translate(3.45 36.58) rotate(-43)"/></g></svg>