<?xml version="1.0" encoding="UTF-8"?>
<svg width="14px" height="14px" viewBox="0 0 14 14" version="1.1" xmlns="http://www.w3.org/2000/svg" xmlns:xlink="http://www.w3.org/1999/xlink">
    <!-- Generator: Sketch 55.2 (78181) - https://sketchapp.com -->
    <title>主键标签</title>
    <desc>Created with Sketch.</desc>
    <g id="主键标签" stroke="none" stroke-width="1" fill="none" fill-rule="evenodd">
        <g id="文件夹关备份">
            <rect id="矩形" x="0" y="0" width="14" height="14"></rect>
        </g>
        <g id="yaoshi" transform="translate(1.000000, 1.000000)" fill="#FFB52D" fill-rule="nonzero">
            <path d="M1.3111085,11.6842105 C1.04098815,11.6766939 0.784653557,11.5632715 0.597424288,11.3684211 L0.316371656,11.0842105 L0.262687446,11.0273684 C0.0859107049,10.8376255 -0.00835528472,10.5854924 0.000582182565,10.3263158 C0.011911886,10.0662331 0.125389736,9.82112092 0.316371656,9.64421053 L3.17426639,6.76105263 C2.23438327,5.03531711 2.56377479,2.89426163 3.97891127,1.53083502 C5.39404774,0.167408405 7.54587656,-0.0820912929 9.23544622,0.921351645 C10.9250159,1.92479458 11.735583,3.93367442 11.2155176,5.82868769 C10.6954521,7.72370096 8.97303156,9.0374303 7.0079506,9.03789474 C6.27946122,9.03752296 5.56275655,8.85400313 4.92374008,8.50421053 L3.79005587,9.62210526 L4.1911085,10.0231579 C4.31491413,10.1458406 4.38431028,10.313074 4.38374008,10.4873684 C4.405703,10.6339464 4.35779159,10.782355 4.25426639,10.8884211 L4.18163481,10.9578947 C4.05847692,11.0810526 4.02058218,11.0242105 3.84689797,11.0242105 C3.67260351,11.0247807 3.50537017,10.9553846 3.38268745,10.8315789 L2.99742429,10.4210526 L2.0279506,11.3684211 C1.84092063,11.5635559 1.58446316,11.6770326 1.31426639,11.6842105 L1.3111085,11.6842105 Z M6.93479271,5.5 C7.62469633,5.49890924 8.18370195,4.93990363 8.18479271,4.25 C8.18479271,3.55964406 7.62514865,3 6.93479271,3 C6.24443677,3 5.68479271,3.55964406 5.68479271,4.25 C5.68479271,4.94035594 6.24443677,5.5 6.93479271,5.5 Z" id="形状结合"></path>
        </g>
    </g>
</svg>