<?xml version="1.0" encoding="UTF-8"?>
<svg width="14px" height="14px" viewBox="0 0 14 14" version="1.1" xmlns="http://www.w3.org/2000/svg" xmlns:xlink="http://www.w3.org/1999/xlink">
    <!-- Generator: Sketch 55.2 (78181) - https://sketchapp.com -->
    <title>点击下拉</title>
    <desc>Created with Sketch.</desc>
    <g id="点击下拉" stroke="none" stroke-width="1" fill="none" fill-rule="evenodd">
        <rect id="矩形" x="0" y="0" width="14" height="14"></rect>
        <circle id="椭圆形" fill="#FFFFFF" cx="7" cy="7" r="6"></circle>
        <g id="Group-74" transform="translate(7.000000, 7.000000) rotate(90.000000) translate(-7.000000, -7.000000) translate(1.000000, 1.000000)">
            <path d="M6,12 C9.3137085,12 12,9.3137085 12,6 C12,2.6862915 9.3137085,0 6,0 C2.6862915,0 0,2.6862915 0,6 C0,9.3137085 2.6862915,12 6,12 Z M6,11.5 C2.96243388,11.5 0.5,9.03756612 0.5,6 C0.5,2.96243388 2.96243388,0.5 6,0.5 C9.03756612,0.5 11.5,2.96243388 11.5,6 C11.5,9.03756612 9.03756612,11.5 6,11.5 Z" id="椭圆形" fill="#D9D9D9" fill-rule="nonzero"></path>
            <rect id="Rectangle-37-Copy-12" x="3.77472527" y="3.77472527" width="4.61538462" height="4.61538462"></rect>
            <g id="doubleright" transform="translate(3.750000, 4.250000)" fill="#000000" fill-opacity="0.65" fill-rule="nonzero">
                <path d="M2.41706731,3.38671875 C2.34900841,3.30198317 2.36253005,3.17803486 2.44726562,3.10997596 L4.16676683,1.72671274 L2.45582933,0.352013221 C2.37109375,0.283954327 2.35757212,0.16000601 2.42563101,0.0752704327 C2.4936899,-0.00946514423 2.61763822,-0.0229867788 2.7023738,0.0450721154 L4.60441707,1.57346755 C4.65084135,1.61042668 4.67788462,1.66721755 4.67788462,1.72671274 C4.67788462,1.78665865 4.65084135,1.8429988 4.60441707,1.88040865 L2.69426082,3.41691707 C2.6577524,3.44576322 2.61403245,3.4601863 2.57076322,3.4601863 C2.51307091,3.4601863 2.45628005,3.43494591 2.41706731,3.38671875 Z M0.0450721154,3.38671875 C-0.0229867788,3.30198317 -0.00946514423,3.17803486 0.0752704327,3.10997596 L1.79477163,1.72671274 L0.0838341346,0.352013221 C-0.000901442308,0.283954327 -0.0144230769,0.16000601 0.0536358173,0.0752704327 C0.121694712,-0.00946514423 0.245643029,-0.0229867788 0.330378606,0.0450721154 L2.23242187,1.57346755 C2.27884615,1.61042668 2.30588942,1.66721755 2.30588942,1.72671274 C2.30588942,1.78665865 2.27884615,1.8429988 2.23242187,1.88040865 L0.322265625,3.41691707 C0.285757212,3.44576322 0.24203726,3.4601863 0.198768029,3.4601863 C0.141075721,3.4601863 0.0842848558,3.43494591 0.0450721154,3.38671875 Z" id="Shape"></path>
            </g>
        </g>
    </g>
</svg>