<?xml version="1.0" encoding="UTF-8"?>
<svg width="14px" height="14px" viewBox="0 0 14 14" version="1.1" xmlns="http://www.w3.org/2000/svg" xmlns:xlink="http://www.w3.org/1999/xlink">
    <!-- Generator: Sketch 55.2 (78181) - https://sketchapp.com -->
    <title>关联标签</title>
    <desc>Created with Sketch.</desc>
    <g id="关联标签" stroke="none" stroke-width="1" fill="none" fill-rule="evenodd">
        <g id="文件夹开备份">
            <g id="添加">
                <rect id="矩形" x="0" y="0" width="14" height="14"></rect>
            </g>
        </g>
        <path d="M11.469,11.2955601 C11.4640414,12.2404529 10.6948999,13.0028828 9.75,12.9995709 L4.719,12.9815601 C3.76962252,12.9815601 3,12.2119376 3,11.2625601 L3.027,5.19956012 C3.03392549,4.74893411 3.21572445,4.31864072 3.534,3.99956012 L6.063,1.49156012 C6.73930256,0.830345275 7.82192203,0.837036371 8.49,1.50656012 L11.001,4.05056012 C11.3173106,4.3699508 11.4951378,4.80104696 11.496,5.25056012 L11.469,11.2955601 Z M7.24065664,4.00003583 C6.73489636,4.00382503 6.281262,4.31202301 6.09142658,4.7808197 C5.90159116,5.2496164 6.01297109,5.78661233 6.37359471,6.14123668 C6.73421834,6.49586102 7.27300704,6.59821759 7.73855343,6.40054518 C8.20409983,6.20287277 8.50464509,5.74413247 8.49995002,5.23837978 C8.49354971,4.54893736 7.93010941,3.99487039 7.24065664,4.00003583 Z" id="形状结合" fill="#6CADE6" fill-rule="nonzero"></path>
    </g>
</svg>