<svg id="图层_1" data-name="图层 1" xmlns="http://www.w3.org/2000/svg" viewBox="0 0 40 40"><title>c-function</title><path d="M16.37,18.11a1.7,1.7,0,0,1,1.16.37,1.49,1.49,0,0,1,.35,1.11,1.49,1.49,0,0,1-.35,1.11,1.73,1.73,0,0,1-1.16.32H11V28.1a1,1,0,0,1-.39.72,1.91,1.91,0,0,1-1.27.35,1.8,1.8,0,0,1-1.25-.35,1,1,0,0,1-.36-.72V12.26a1.34,1.34,0,0,1,.4-1.12,2,2,0,0,1,1.21-.31h7.78a1.58,1.58,0,0,1,1.09.32,1.55,1.55,0,0,1,.39,1.13,1.35,1.35,0,0,1-.37,1.13,1.82,1.82,0,0,1-1.14.32H11v4.39Z" style="fill:#0078ff"/><path d="M23.17,28.82a.78.78,0,0,1-.75.34,2.29,2.29,0,0,1-1-.26,2.07,2.07,0,0,1-.72-.57.48.48,0,0,1,0-.65L29.41,15.2a.65.65,0,0,1,.68-.29,2.32,2.32,0,0,1,.93.28,2,2,0,0,1,.71.61.49.49,0,0,1,0,.65ZM21,16.48c-.13-.17-.11-.38.07-.62a2.26,2.26,0,0,1,.7-.63,2.47,2.47,0,0,1,.92-.32.71.71,0,0,1,.71.25l8.79,12.41a.57.57,0,0,1-.07.68,2.15,2.15,0,0,1-.73.62,2.45,2.45,0,0,1-.95.3.75.75,0,0,1-.74-.32Z" style="fill:#0078ff"/><path d="M38.15,31.11h-.31a1.09,1.09,0,0,0-1,.86A3.5,3.5,0,0,1,36,33.46a3.22,3.22,0,0,1-2.34,1H4.78a3.26,3.26,0,0,1-2.35-1A3.53,3.53,0,0,1,1.6,32a1.09,1.09,0,0,0-1-.86H.26a1.12,1.12,0,0,0-1,1.41,5.82,5.82,0,0,0,5.54,4.54H33.64a5.81,5.81,0,0,0,5.53-4.53A1.11,1.11,0,0,0,38.15,31.11ZM.26,9H.58a1.11,1.11,0,0,0,1-.87,3.6,3.6,0,0,1,.83-1.49,3.25,3.25,0,0,1,2.35-1H33.64a3.25,3.25,0,0,1,2.35,1,3.61,3.61,0,0,1,.82,1.47,1.13,1.13,0,0,0,1,.89h.27a1.15,1.15,0,0,0,1-1.48,6.23,6.23,0,0,0-1.88-3.08,5.76,5.76,0,0,0-3.85-1.39H5A5.83,5.83,0,0,0,.25,5.43a6,6,0,0,0-1,2.15A1.11,1.11,0,0,0,.26,9Z" style="fill:#0078ff"/></svg>