<svg id="图层_1" data-name="图层 1" xmlns="http://www.w3.org/2000/svg" viewBox="0 0 40 40"><title>geshihua</title><path d="M23.56,38a1.45,1.45,0,0,1,0-2.89h1.79L25.4,5l-1.84,0a1.45,1.45,0,0,1,0-2.89h6.57a1.45,1.45,0,1,1,0,2.89H28.34L28.29,35l1.84.05a1.45,1.45,0,1,1,0,2.89Z" style="fill:#7f7f7f"/><path d="M3.43,33.38A1.44,1.44,0,0,1,2,31.94V8.06A1.44,1.44,0,0,1,3.43,6.62h17a1.44,1.44,0,0,1,0,2.87H4.87v21H20.42a1.44,1.44,0,0,1,0,2.87Z" style="fill:#7f7f7f"/><path d="M33.18,33.38a1.44,1.44,0,1,1,0-2.87h2v-21h-2a1.44,1.44,0,1,1,0-2.87h3.39A1.44,1.44,0,0,1,38,8.06V31.94a1.44,1.44,0,0,1-1.43,1.44Z" style="fill:#7f7f7f"/><path d="M10.59,22.65a1.46,1.46,0,0,1,0-2.91h6.2a1.46,1.46,0,0,1,0,2.91Z" style="fill:#7f7f7f"/></svg>