<?xml version="1.0" encoding="UTF-8"?>
<svg width="12px" height="12px" viewBox="0 0 12 12" version="1.1" xmlns="http://www.w3.org/2000/svg" xmlns:xlink="http://www.w3.org/1999/xlink">
    <!-- Generator: Sketch 63.1 (92452) - https://sketch.com -->
    <title>Group 19</title>
    <desc>Created with Sketch.</desc>
    <g id="控件" stroke="none" stroke-width="1" fill="none" fill-rule="evenodd" fill-opacity="0.45">
        <g id="标签" fill="#000000" fill-rule="nonzero">
            <g id="Group-19">
                <g id="tag" transform="translate(0.726562, 0.726562)">
                    <path d="M10.5445312,6.39960938 C10.5445312,6.38554688 10.5433594,6.37265625 10.5421875,6.35859375 C10.5363281,6.290625 10.5210937,6.22265625 10.4988281,6.15703125 C10.471875,6.07851562 10.4332031,6.00234375 10.3816406,5.93203125 C10.3558594,5.896875 10.3277344,5.86289062 10.2960937,5.83125 L4.68984375,0.1734375 C4.65703125,0.139453125 4.61953125,0.11015625 4.5796875,0.08671875 C4.49179687,0.033984375 4.39101562,0.0046875 4.28554687,0.0046875 L0.880078125,0.0046875 C0.397265625,0.0046875 0.005859375,0.39140625 0.005859375,0.86953125 L0.005859375,4.3640625 C0.005859375,4.4015625 0.009375,4.43789063 0.01640625,4.47304687 C0.01875,4.48242188 0.019921875,4.490625 0.022265625,4.5 C0.029296875,4.52695313 0.0375,4.55273438 0.048046875,4.57734375 C0.0515625,4.58554688 0.055078125,4.59375 0.059765625,4.60195313 C0.08671875,4.659375 0.12421875,4.71210938 0.17109375,4.75898438 L2.97070312,7.52460937 L5.7703125,10.2902344 C5.83476562,10.3535156 5.90625,10.4050781 5.98242187,10.4449219 C6.10898437,10.5105469 6.24960937,10.5433594 6.3890625,10.5433594 C6.5015625,10.5433594 6.61289062,10.5222656 6.71835937,10.4800781 C6.82382812,10.4378906 6.92226562,10.3746094 7.0078125,10.2902344 L10.2890625,7.04648438 C10.3089844,7.0265625 10.3277344,7.00664062 10.3453125,6.98554687 C10.36875,6.95742187 10.3898437,6.928125 10.4085937,6.89882812 C10.4214844,6.87890625 10.4332031,6.85898437 10.44375,6.8390625 C10.4542969,6.81914062 10.4636719,6.80039062 10.471875,6.78046875 C10.4765625,6.76992187 10.48125,6.759375 10.4847656,6.74882812 C10.5304687,6.63632812 10.5492187,6.51796875 10.5445312,6.39960938 Z M2.36015625,3.24140625 C1.89960937,3.24140625 1.52578125,2.86757813 1.52578125,2.40703125 C1.52578125,1.94648438 1.89960938,1.57265625 2.36015625,1.57265625 C2.82070312,1.57265625 3.19453125,1.94648438 3.19453125,2.40703125 C3.19453125,2.86757813 2.82070313,3.24140625 2.36015625,3.24140625 Z" id="Shape"></path>
                </g>
            </g>
        </g>
    </g>
</svg>