<svg id="图层_1" data-name="图层 1" xmlns="http://www.w3.org/2000/svg" viewBox="0 0 180 140"><defs><style>.cls-1{fill:#f3f3f3;opacity:0.7;}.cls-2,.cls-3,.cls-6,.cls-7{fill:#fff;}.cls-10,.cls-2,.cls-3,.cls-5,.cls-6,.cls-7,.cls-8,.cls-9{stroke:#9da4af;}.cls-2,.cls-6{stroke-linejoin:round;}.cls-10,.cls-3,.cls-5,.cls-7,.cls-8,.cls-9{stroke-miterlimit:10;}.cls-4{fill:#9da4af;}.cls-10,.cls-5{fill:#f5f5f5;}.cls-5,.cls-6,.cls-7,.cls-8,.cls-9{stroke-linecap:round;}.cls-8{fill:#e6e6e6;}.cls-9{fill:none;}</style></defs><title>暂无内容</title><path class="cls-1" d="M85.1,18.69a25.48,25.48,0,0,0-4,.32A34.5,34.5,0,0,0,16.18,32.94,18.49,18.49,0,0,0,19.1,69.69c.17,0,.33,0,.5,0v0h65v0l.5,0a25.5,25.5,0,1,0,0-51Z"/><path class="cls-1" d="M163.17,95.07a16.58,16.58,0,0,0-2.56.2,22,22,0,0,0-41.3,8.87,11.76,11.76,0,0,0,1.86,23.38h42a16.23,16.23,0,1,0,0-32.45Z"/><path class="cls-2" d="M90.05,6.08H90A5.75,5.75,0,0,1,85,11v.11a5.76,5.76,0,0,1,5,4.95h.1a5.76,5.76,0,0,1,5-4.95V11A5.75,5.75,0,0,1,90.05,6.08Z"/><circle class="cls-3" cx="2.58" cy="89.14" r="1.5"/><path class="cls-4" d="M160,68.59h-1.5v-1.5a.5.5,0,0,0-.5-.5.5.5,0,0,0-.5.5v1.5H156a.5.5,0,0,0-.5.5.51.51,0,0,0,.5.5h1.5v1.5a.51.51,0,0,0,.5.5.5.5,0,0,0,.5-.5v-1.5H160a.5.5,0,0,0,.5-.5A.5.5,0,0,0,160,68.59Z"/><path class="cls-5" d="M136.05,134.11l-.87,2.39a4.81,4.81,0,0,1-4.5,3.14h-90a2.08,2.08,0,0,1-1.94-1.32l-13-32.75H146.52l-8,21.78-1.16,3.17"/><line class="cls-6" x1="43.34" y1="105.48" x2="48.78" y2="118.36"/><line class="cls-6" x1="48.66" y1="105.56" x2="52.08" y2="113.67"/><line class="cls-6" x1="123" y1="126.38" x2="128.06" y2="139.42"/><line class="cls-6" x1="120.27" y1="131.21" x2="123.46" y2="139.42"/><path class="cls-6" d="M40.66,69.69,25.22,102.33a2.27,2.27,0,0,0,2.05,3.24H64.85A2.4,2.4,0,0,1,67,106.94l4.3,9.13a4.79,4.79,0,0,0,4.33,2.75h22a4.79,4.79,0,0,0,4.33-2.75l4.3-9.13a2.4,2.4,0,0,1,2.17-1.37h36.59a2.27,2.27,0,0,0,2.06-3.21L119.45,41.79H55.38a2.38,2.38,0,0,0-2.16,1.37L43.16,64.41"/><path class="cls-7" d="M139.83,96.3l1.5,3.35a1.25,1.25,0,0,1-1.14,1.76H105.84a2.4,2.4,0,0,0-2.17,1.37l-5,10.5a2.38,2.38,0,0,1-2.16,1.37H76.76a2.38,2.38,0,0,1-2.16-1.37l-4.95-10.5a2.37,2.37,0,0,0-2.16-1.37H32.22a1.25,1.25,0,0,1-1.13-1.78L55.86,46.3A2.39,2.39,0,0,1,58,44.91h57.2a2.4,2.4,0,0,1,2.18,1.42l19.74,44"/><line class="cls-7" x1="137.99" y1="92.21" x2="138.5" y2="93.35"/><line class="cls-3" x1="56.5" y1="44.91" x2="66.37" y2="63.65"/><line class="cls-3" x1="116.33" y1="44.91" x2="106.47" y2="63.65"/><path class="cls-8" d="M57.05,84.13l-7.87,17.28H67.49a2.37,2.37,0,0,1,2.16,1.37l4.95,10.5a2.38,2.38,0,0,0,2.16,1.37h19.8a2.38,2.38,0,0,0,2.16-1.37l5-10.5a2.4,2.4,0,0,1,2.17-1.37h17.23l-15.7-36.32a2.4,2.4,0,0,0-2.2-1.44H67.93a2.4,2.4,0,0,0-2.18,1.4L61.58,74.2"/><line class="cls-9" x1="60.62" y1="76.31" x2="59.57" y2="78.62"/><line class="cls-6" x1="76.78" y1="83.7" x2="86.38" y2="88.42"/><line class="cls-6" x1="80.06" y1="81.16" x2="86.1" y2="84.13"/><path class="cls-10" d="M139.39,47.3H116.8l-7.59,10.83V47.3A15.65,15.65,0,0,1,93.59,31.69h0A15.65,15.65,0,0,1,109.2,16.08h30.19A15.66,15.66,0,0,1,155,31.69h0A15.66,15.66,0,0,1,139.39,47.3Z"/><path class="cls-10" d="M144.58,46.41a15.46,15.46,0,0,1-5.19.89H116.8l-7.59,10.83V47.3A15.65,15.65,0,0,1,93.59,31.69h0A15.45,15.45,0,0,1,94.67,26"/><path class="cls-10" d="M149.75,43.35A16.34,16.34,0,0,1,147.47,45"/><path class="cls-10" d="M96.61,22.49a15.61,15.61,0,0,1,12.59-6.41h30.19A15.66,15.66,0,0,1,155,31.69h0a15.5,15.5,0,0,1-3.09,9.3"/><circle class="cls-3" cx="109.37" cy="31.69" r="4.16"/><circle class="cls-3" cx="139.21" cy="31.69" r="4.16"/><circle class="cls-3" cx="124.47" cy="31.69" r="4.16"/></svg>