<svg xmlns="http://www.w3.org/2000/svg" xmlns:xlink="http://www.w3.org/1999/xlink" viewBox="0 0 598.66 378.13"><defs><style>.cls-1,.cls-2,.cls-3,.cls-4,.cls-7,.cls-8{opacity:0.1;}.cls-1{fill:url(#未命名的渐变_289);}.cls-2{fill:url(#未命名的渐变_289-2);}.cls-3{fill:url(#未命名的渐变_289-3);}.cls-4{fill:url(#未命名的渐变_289-4);}.cls-5{fill:#fff;}.cls-6{opacity:0.3;fill:url(#未命名的渐变_289-5);}.cls-7{fill:url(#未命名的渐变_289-6);}.cls-8{fill:url(#未命名的渐变_289-7);}.cls-9{fill:url(#未命名的渐变_91);}.cls-10{fill:url(#未命名的渐变_91-2);}.cls-11{fill:url(#未命名的渐变_91-3);}.cls-12{fill:url(#未命名的渐变_91-4);}.cls-13{fill:url(#未命名的渐变_69);}.cls-14{fill:url(#未命名的渐变_94);}.cls-15,.cls-16,.cls-18,.cls-19{opacity:0.9;}.cls-15{fill:url(#未命名的渐变_158);}.cls-16{fill:url(#未命名的渐变_153);}.cls-17{fill:url(#未命名的渐变_148);}.cls-18{fill:url(#未命名的渐变_162);}.cls-19{fill:url(#未命名的渐变_153-2);}.cls-20{fill:url(#未命名的渐变_170);}.cls-21{fill:#9e9f9f;}.cls-22{fill:url(#未命名的渐变_362);}.cls-23{opacity:0.5;}.cls-24{fill:gray;}.cls-25{opacity:0.8;fill:url(#未命名的渐变_155);}</style><linearGradient id="未命名的渐变_289" x1="217.74" y1="319.3" x2="217.74" y2="129.84" gradientUnits="userSpaceOnUse"><stop offset="0" stop-color="#9e9f9f" stop-opacity="0"/><stop offset="0.14" stop-color="#9e9f9f" stop-opacity="0.03"/><stop offset="0.3" stop-color="#9e9f9f" stop-opacity="0.12"/><stop offset="0.47" stop-color="#9e9f9f" stop-opacity="0.27"/><stop offset="0.66" stop-color="#9e9f9f" stop-opacity="0.48"/><stop offset="0.84" stop-color="#9e9f9f" stop-opacity="0.74"/><stop offset="1" stop-color="#9e9f9f"/></linearGradient><linearGradient id="未命名的渐变_289-2" x1="494.7" y1="297.41" x2="494.7" y2="209.74" xlink:href="#未命名的渐变_289"/><linearGradient id="未命名的渐变_289-3" x1="100.08" y1="325.89" x2="100.08" y2="178.57" xlink:href="#未命名的渐变_289"/><linearGradient id="未命名的渐变_289-4" x1="382.64" y1="275.94" x2="382.64" y2="155.52" xlink:href="#未命名的渐变_289"/><linearGradient id="未命名的渐变_289-5" x1="310.15" y1="378.13" x2="310.15" y2="238.77" xlink:href="#未命名的渐变_289"/><linearGradient id="未命名的渐变_289-6" x1="520.43" y1="197.34" x2="520.43" y2="81.9" xlink:href="#未命名的渐变_289"/><linearGradient id="未命名的渐变_289-7" x1="100.08" y1="147.69" x2="100.08" y2="0" xlink:href="#未命名的渐变_289"/><linearGradient id="未命名的渐变_91" x1="173.16" y1="191.75" x2="283.79" y2="81.12" gradientUnits="userSpaceOnUse"><stop offset="0" stop-color="#3771b7" stop-opacity="0.3"/><stop offset="0.03" stop-color="#376fb5" stop-opacity="0.34"/><stop offset="0.24" stop-color="#3363a8" stop-opacity="0.63"/><stop offset="0.43" stop-color="#31599e" stop-opacity="0.83"/><stop offset="0.61" stop-color="#305498" stop-opacity="0.96"/><stop offset="0.73" stop-color="#2f5296"/></linearGradient><linearGradient id="未命名的渐变_91-2" x1="172.57" y1="191.17" x2="283.21" y2="80.53" xlink:href="#未命名的渐变_91"/><linearGradient id="未命名的渐变_91-3" x1="172.28" y1="190.87" x2="282.91" y2="80.24" xlink:href="#未命名的渐变_91"/><linearGradient id="未命名的渐变_91-4" x1="172.87" y1="191.47" x2="283.51" y2="80.84" xlink:href="#未命名的渐变_91"/><linearGradient id="未命名的渐变_69" x1="206.82" y1="225.41" x2="207.12" y2="225.41" gradientUnits="userSpaceOnUse"><stop offset="0.34" stop-color="#2b4883"/><stop offset="0.44" stop-color="#2c4c88" stop-opacity="0.9"/><stop offset="0.62" stop-color="#2f5695" stop-opacity="0.65"/><stop offset="0.87" stop-color="#3467ab" stop-opacity="0.24"/><stop offset="1" stop-color="#3771b7" stop-opacity="0"/></linearGradient><linearGradient id="未命名的渐变_94" x1="-205.09" y1="2291.32" x2="-205.08" y2="2291.27" gradientTransform="matrix(0.96, 0.31, 0.24, -0.72, -142.31, 1947.59)" gradientUnits="userSpaceOnUse"><stop offset="0" stop-color="#3771b7" stop-opacity="0.2"/><stop offset="0.14" stop-color="#366db4" stop-opacity="0.41"/><stop offset="0.31" stop-color="#3469b1" stop-opacity="0.62"/><stop offset="0.48" stop-color="#3365af" stop-opacity="0.79"/><stop offset="0.66" stop-color="#3363ad" stop-opacity="0.91"/><stop offset="0.83" stop-color="#3261ac" stop-opacity="0.98"/><stop offset="1" stop-color="#3261ac"/></linearGradient><linearGradient id="未命名的渐变_158" x1="289.91" y1="107.29" x2="236.56" y2="199.7" gradientUnits="userSpaceOnUse"><stop offset="0" stop-color="#b4b4b5"/><stop offset="0.42" stop-color="#bdbdbe" stop-opacity="0.85"/><stop offset="1" stop-color="#ccc" stop-opacity="0.6"/></linearGradient><linearGradient id="未命名的渐变_153" x1="229.93" y1="192.95" x2="384.62" y2="192.95" gradientUnits="userSpaceOnUse"><stop offset="0" stop-color="#b4b4b5"/><stop offset="0.28" stop-color="#b5b5b6" stop-opacity="0.98"/><stop offset="0.53" stop-color="#bababb" stop-opacity="0.9"/><stop offset="0.76" stop-color="#c1c1c2" stop-opacity="0.78"/><stop offset="0.99" stop-color="#cbcbcb" stop-opacity="0.61"/><stop offset="1" stop-color="#ccc" stop-opacity="0.6"/></linearGradient><linearGradient id="未命名的渐变_148" x1="278.57" y1="183.74" x2="423.6" y2="38.72" gradientUnits="userSpaceOnUse"><stop offset="0" stop-color="#c8c9c9" stop-opacity="0.1"/><stop offset="0.21" stop-color="#c8c9c9" stop-opacity="0.34"/><stop offset="0.48" stop-color="#c8c9c9" stop-opacity="0.62"/><stop offset="0.71" stop-color="#c8c9c9" stop-opacity="0.83"/><stop offset="0.89" stop-color="#c8c9c9" stop-opacity="0.95"/><stop offset="1" stop-color="#c8c9c9"/></linearGradient><linearGradient id="未命名的渐变_162" x1="258" y1="195.9" x2="258" y2="280" gradientUnits="userSpaceOnUse"><stop offset="0" stop-color="#eee" stop-opacity="0.4"/><stop offset="1" stop-color="#b4b4b5"/></linearGradient><linearGradient id="未命名的渐变_153-2" x1="260.57" y1="148.04" x2="346" y2="296.03" xlink:href="#未命名的渐变_153"/><linearGradient id="未命名的渐变_170" x1="308.32" y1="297.43" x2="409.66" y2="121.91" gradientUnits="userSpaceOnUse"><stop offset="0" stop-color="#c8c9c9" stop-opacity="0.1"/><stop offset="0.18" stop-color="#d3d4d4" stop-opacity="0.32"/><stop offset="0.39" stop-color="#e0e1e1" stop-opacity="0.56"/><stop offset="0.59" stop-color="#e9eaea" stop-opacity="0.75"/><stop offset="0.76" stop-color="#f0f1f1" stop-opacity="0.89"/><stop offset="0.91" stop-color="#f4f5f5" stop-opacity="0.97"/><stop offset="1" stop-color="#f6f7f7"/></linearGradient><linearGradient id="未命名的渐变_362" x1="361.98" y1="151.05" x2="361.98" y2="52.65" gradientUnits="userSpaceOnUse"><stop offset="0" stop-color="#fff"/><stop offset="0.28" stop-color="#fbfbfb"/><stop offset="0.54" stop-color="#f0f0f0"/><stop offset="0.79" stop-color="#dddede"/><stop offset="1" stop-color="#c8c9c9"/></linearGradient><linearGradient id="未命名的渐变_155" x1="115.94" y1="273.42" x2="288.24" y2="372.89" gradientUnits="userSpaceOnUse"><stop offset="0" stop-color="#f6f7f7" stop-opacity="0.2"/><stop offset="0.14" stop-color="#dbdcdc" stop-opacity="0.39"/><stop offset="0.33" stop-color="#c0c1c1" stop-opacity="0.57"/><stop offset="0.52" stop-color="#adaeae" stop-opacity="0.7"/><stop offset="0.73" stop-color="#a2a3a3" stop-opacity="0.78"/><stop offset="1" stop-color="#9e9f9f" stop-opacity="0.8"/></linearGradient></defs><g id="图层_2" data-name="图层 2"><g id="图层_1-2" data-name="图层 1"><rect class="cls-1" x="156.53" y="129.84" width="122.42" height="189.47"/><rect class="cls-2" x="448.01" y="209.74" width="93.39" height="87.67"/><polygon class="cls-3" points="113.34 198.34 113.34 178.57 57.47 178.57 57.47 198.34 57.47 325.89 142.69 325.89 142.69 198.34 113.34 198.34"/><polygon class="cls-4" points="352.56 155.52 352.56 162.6 328.51 162.6 328.51 275.94 436.77 275.94 436.77 162.6 436.77 155.52 352.56 155.52"/><polygon class="cls-5" points="281.3 238.83 281.21 238.84 281.21 238.84 280.69 238.95 281.3 238.78 281.3 238.83"/><path class="cls-6" d="M570.26,378.13C523.81,295.7,424.8,238.77,310.15,238.77S96.49,295.7,50,378.13Z"/><path class="cls-7" d="M560.52,121.05a38.4,38.4,0,0,0-8.56,1c-2.14-22.52-21.34-40.13-44.71-40.13-24.81,0-44.92,19.85-44.92,44.33,0,.91,0,1.82.09,2.72a36,36,0,0,0,15.81,68.39h82.29a38.15,38.15,0,0,0,0-76.29Z"/><path class="cls-8" d="M151.36,50.09a48.73,48.73,0,0,0-10.94,1.25C137.67,22.54,113.11,0,83.21,0,51.48,0,25.75,25.4,25.75,56.72c0,1.17,0,2.32.11,3.47a46.09,46.09,0,0,0,20.23,87.5H151.36a48.8,48.8,0,0,0,0-97.6Z"/><path class="cls-9" d="M238.69,126.2h0Z"/><path class="cls-10" d="M237.33,126.22h0Z"/><path class="cls-11" d="M236.66,126.24l.52,0h-.09Z"/><path class="cls-12" d="M238,126.2h0Z"/><polygon class="cls-13" points="206.86 225.41 206.86 225.41 206.86 225.41 206.86 225.41"/><polygon class="cls-14" points="206.86 225.41 206.86 225.41 206.86 225.41 206.86 225.41"/><path class="cls-5" d="M385.41,126.09c0-.12,0-.25,0-.37s0-.13,0-.2v-.08c0-.08,0-.17,0-.25l0-.52c0-.18,0-.35,0-.52l0-.35v-.07a.34.34,0,0,1,0-.1c0-.21,0-.42-.07-.63s-.05-.42-.08-.63a2,2,0,0,0,0-.24l0-.14,0-.24c0-.21-.07-.42-.11-.62s-.07-.38-.11-.57a2.33,2.33,0,0,1-.05-.28s0-.1,0-.16c-.07-.33-.14-.66-.23-1a2.68,2.68,0,0,0-.07-.27c0-.1-.05-.2-.08-.3s-.07-.28-.11-.41c-.09-.33-.19-.66-.29-1v0l-.11-.3c-.11-.35-.23-.69-.35-1,0-.06-.05-.11-.07-.16s-.13-.35-.2-.52-.17-.45-.26-.67-.09-.19-.13-.29-.06-.15-.1-.23l-.15-.33-.21-.47-.21-.42-.28-.55a3.18,3.18,0,0,0-.16-.32c-.16-.31-.33-.61-.5-.92v0l-.52-.89-.25-.38-.17-.28-.14-.22-.59-.87-.1-.15-.09-.12-.21-.29-.41-.56-.3-.39-.07-.08-.06-.08c-.14-.18-.28-.36-.43-.53l-.37-.45-.16-.18-.07-.08-.15-.18-.39-.43-.39-.43-.15-.15-.06-.06-.14-.16-.36-.37-.37-.36-.28-.27,0,0,0,0-.05-.05-.26-.24-.26-.25-.27-.24-.26-.23-.12-.11,0,0-.13-.11-.29-.25-.29-.24-.29-.24-.26-.21,0,0-.08-.06-.39-.3-.39-.3-.4-.29-.06,0,0,0-.27-.19-.38-.27-.39-.26-.33-.22,0,0h0l-.38-.24-.38-.24-.39-.23-.25-.16-.05,0-.08,0-.37-.22-.38-.21-.37-.2-.26-.14,0,0-.08,0-.38-.2-.37-.18-.38-.19-.31-.14,0,0-.05,0-.38-.17-.38-.17-.38-.17-.38-.16h0l-.37-.15-.39-.15-.38-.15-.39-.14-.07,0h0l-.29-.1-.39-.13-.39-.13-.39-.13-.14,0-.05,0-.21-.06-.4-.12-.41-.11-.4-.11-.2,0,0,0-.17,0-.42-.1-.42-.1-.42-.09-.21,0h-.07l-.15,0-.43-.09-.43-.08-.44-.07-.21,0h-.07l-.18,0-.47-.07L354,93l-.47-.06h-.16l-.34,0-.51,0-.5,0-.36,0h-.15l-.42,0-.41,0h-.84l-4.08.19-83.87,3.82c-.11,0-.23,0-.35-.48h0a1,1,0,0,1-.53.61h-.05c0-.14-.07-.13-.1-.13h-.54l-.52,0h0c-.56,0-1.11.07-1.66.12l-.47,0c-.42,0-.83.09-1.24.15l-.43.06q-.75.12-1.5.27l-.07,0-.26.05-1.31.31-.45.12-1.24.37-.29.09c-.44.14-.87.29-1.3.45l-.17.06L249,99c-.38.15-.75.3-1.12.47l-.4.17c-.47.21-.93.43-1.39.66h0c-.36.18-.72.38-1.08.58l-.24.14-.37.22c-.34.19-.66.39-1,.6l-.33.21c-.42.28-.83.56-1.23.85l-.2.15-.72.53-.37.3-.15.12-.15.12c-.23.18-.45.37-.66.56l-.32.27-.15.14-.18.16-.63.58-.3.3-.07.07a.94.94,0,0,0-.1.1c-.16.15-.31.31-.46.47l-.46.48-.09.1-.07.08c-.09.1-.19.2-.28.31l-.38.43c-.12.14-.24.29-.37.43l0,0h0l0,0-.31.37-.35.45-.32.42,0,0,0,0c-.08.12-.17.24-.26.35l-.3.43-.3.43-.08.11,0,0-.17.24-.27.42-.26.41-.18.3,0,0-.06.09-.24.4-.23.4-.23.41a.83.83,0,0,1-.07.13l0,0-.13.24-.21.39-.2.4c-.07.13-.13.26-.2.4l0,0v0L231,116c-.07.13-.13.26-.19.39l-.18.4-.18.41h0l-.17.38c-.05.14-.11.27-.16.4l-.16.4-.15.4h0c-.05.13-.1.26-.14.39l-.15.4c0,.13-.09.27-.14.41l-.13.4v0h0c0,.13-.08.25-.11.37s-.09.28-.13.42l-.12.41-.12.41v.06l-.09.36c0,.14-.08.28-.11.43s-.07.28-.11.42-.06.29-.1.43v.07c0,.12-.06.24-.08.36l-.09.42c0,.14-.06.28-.08.41s-.06.28-.08.42l0,.11v0c0,.1,0,.2-.05.3l-.06.34c0,.12,0,.24-.05.35s0,.24-.05.35,0,.24,0,.36v.06h0a2.54,2.54,0,0,0,0,.29c0,.12,0,.24,0,.36s0,.24,0,.36l0,.37c0,.14,0,.29,0,.44l0,.44c0,.14,0,.29,0,.44s0,.3,0,.45l0,.46v0h0c0,.14,0,.28,0,.42s0,.3,0,.46,0,.31,0,.46a.53.53,0,0,0,.2.49v0h0a.47.47,0,0,0-.2.45c0,.16,0,.33,0,.49s0,.33,0,.49v.46l2.56,61.1h0l.14,0-17,43.37,0,.09,0,.08,0,.08,0,.08c0,.12-.09.24-.13.35l-.12.36a3,3,0,0,0-.11.32h0v0c0,.12-.08.24-.11.35s-.07.23-.11.34l-.09.34-.09.31h0v0l-.09.34c0,.11,0,.22-.08.33s-.05.22-.08.33l-.06.33c0,.11,0,.23-.07.34s0,.18,0,.27,0,.18-.05.28,0,.18,0,.27l0,.22h0v.05c0,.09,0,.18,0,.27l0,.27,0,.27,0,.27c0,.07,0,.15,0,.23v.1c0,.11,0,.22,0,.33s0,.21,0,.32,0,.22,0,.33a2.71,2.71,0,0,1,0,.29h0v1.07c0,.09,0,.19,0,.29h0v0c0,.11,0,.22,0,.33s0,.23,0,.34,0,.22,0,.34l0,.3h0v0l0,.33c0,.12,0,.23,0,.34s0,.23,0,.34,0,.22.05.33h0c0,.11,0,.22.05.34l.06.34.06.33.06.33h0c0,.12.05.23.08.35s.05.23.08.35,0,.23.08.34.05.19.07.29h0v.05l.09.35c0,.12.07.24.1.35s.07.24.11.35l.06.21,0,0,0,.12c0,.12.08.24.13.37l.12.36c.05.12.09.24.13.36l0,.08v0l.1.27.15.38c.06.13.11.26.16.38s.07.16.1.23l0,.05,0,.1.18.41c.07.13.13.27.19.4l.17.34v0l0,0,.21.4c.07.15.15.29.23.44l.2.37h0v0l0,0c.08.14.16.29.25.43l.25.43.2.31,0,.08.06.1.32.49.33.49a.86.86,0,0,1,.07.1l.05.07c.08.1.15.21.22.31l.46.62c0,.06.09.12.14.17l.11.15.23.3.5.61.12.14.12.13.2.24.08.09c.18.21.37.41.56.62l.15.16c.32.34.65.68,1,1,.09.09.18.17.26.26l.81.75.3.27.2.18c.29.26.59.51.89.76h0c.38.31.77.61,1.17.91l.34.26,1,.68.31.21a.71.71,0,0,0,.14.1l1.13.74a2.26,2.26,0,0,1,.26.16l1.1.65.4.22,1.18.64.23.12.07,0c.45.23.91.45,1.37.66l.39.18,1.15.51.44.18c.51.21,1,.41,1.55.6l.49.18.06,0,.09,0,.37.13.1,0,.05,0,.5.17h0l.56.18h0c.64.2,1.28.38,1.92.56h.06c.62.17,1.25.32,1.88.46l.06,0c.63.14,1.26.26,1.89.38h.09c.62.12,1.25.22,1.88.3l.08,0c.62.08,1.25.16,1.88.22h.08c.63.06,1.26.11,1.89.14H249c.64,0,1.27.06,1.9.07h0c.65,0,1.29,0,1.93,0h0c.65,0,1.29,0,1.94-.08h0c.64,0,1.27-.09,1.9-.16h.05q.94-.11,1.86-.24h.07c.62-.09,1.23-.19,1.84-.3h0c.61-.11,1.21-.24,1.81-.38h.06c.6-.14,1.19-.29,1.78-.45l.06,0c.59-.16,1.17-.33,1.74-.52h.05c.57-.19,1.15-.39,1.71-.6l0,0c.56-.2,1.11-.42,1.66-.65l.08,0c.54-.23,1.07-.46,1.59-.71l.1-.05c.52-.25,1-.51,1.54-.78l.11-.06c.48-.26,1-.53,1.42-.8l.14-.09c.45-.27.89-.55,1.33-.83l.29-.2c.43-.29.85-.59,1.27-.9h0c.39-.29.77-.59,1.14-.89l.5-.41.76-.67.47-.43c.26-.24.51-.48.75-.73l.41-.41c.29-.31.58-.62.86-.94.07-.08.15-.16.22-.25.32-.37.64-.76.94-1.15l.2-.25c.29-.39.57-.79.84-1.19a1.88,1.88,0,0,0,.16-.23c.26-.4.52-.81.76-1.22a.75.75,0,0,0,.07-.12c.27-.46.52-.92.76-1.39l0-.07c.23-.48.46-1,.67-1.46l0-.07c.21-.51.41-1,.59-1.55l.88-2.52,7.83-22.61,8.23-23.74-.18,0L314.83,206v.09h0l0,3.1.49,92.56,10.44,5.89,14.85-2.08.61-50.54.11-58.37-.12-.07,43.1-15.38,1.08-53.94v-1.13Z"/><path class="cls-15" d="M259.77,96.7c-.55,0-1.11.07-1.65.12l-.47.05L256.4,97l-.42.06c-.5.08-1,.16-1.5.27h-.08l-.25.06c-.44.09-.88.2-1.32.31l-.44.12c-.42.11-.83.23-1.24.36l-.29.09c-.44.14-.88.29-1.3.45l-.17.07L249,99l-1.12.46-.4.18c-.47.21-.94.43-1.39.66h0c-.36.19-.73.38-1.08.58l-.24.14-.37.22c-.34.2-.67.4-1,.61l-.33.21c-.42.27-.83.55-1.24.84l-.19.15-.72.54c-.13.09-.25.19-.37.29l-.15.12-.16.13-.66.55-.31.28-.15.14-.18.15-.63.59-.31.3-.07.07-.09.09c-.16.16-.31.32-.47.47l-.45.48-.09.11a.46.46,0,0,0-.07.07l-.28.31-.38.43-.37.44,0,0h0v0l-.31.38-.35.45c-.11.13-.22.27-.32.41l0,0,0,0c-.09.11-.18.23-.26.35l-.31.42-.3.43-.07.12,0,0-.16.24-.27.41c-.09.14-.18.28-.26.42l-.18.29,0,0-.05.09-.24.39c-.08.14-.16.27-.23.41l-.23.4s-.05.09-.07.14l0,0-.12.23-.21.4c-.07.13-.14.26-.2.39s-.14.27-.2.4l0,.06v0c-.05.1-.1.21-.16.32l-.18.4-.18.4-.18.4v0h0l-.16.39c-.06.13-.11.26-.16.4s-.11.26-.16.4-.11.26-.16.4h0l-.15.39c-.05.14-.09.27-.14.4s-.1.28-.14.41l-.14.41v0h0l-.12.37-.12.41c-.05.14-.09.28-.13.41s-.07.28-.11.42v.06c0,.12-.06.24-.1.36s-.07.28-.11.42-.07.29-.1.43-.07.28-.1.43v0h0c0,.12-.05.24-.08.37s-.06.27-.08.41l-.09.42c0,.14-.05.28-.08.42v.13c0,.1,0,.19,0,.29l-.06.35-.06.35c0,.12,0,.23-.05.35s0,.23,0,.35v.07h0l0,.29c0,.12,0,.24,0,.36s0,.25,0,.37,0,.24,0,.36,0,.29,0,.44,0,.3,0,.44l0,.45,0,.44c0,.16,0,.31,0,.46v0h0c0,.14,0,.28,0,.42s0,.31,0,.46,0,.31,0,.47,0,.32,0,.49c0,0,0,0,0,0h0c0,.15,0,.3,0,.44v.5c0,.16,0,.32,0,.49v.46l2.56,61.1,74.2-19.72-.42-34.91c0-.73,0-1.46-.08-2.18V139c0-.7-.11-1.4-.18-2.1v-.09c-.08-.69-.18-1.37-.29-2.05a1.1,1.1,0,0,0,0-.18c-.11-.62-.22-1.23-.35-1.84,0-.12,0-.23-.07-.35-.13-.61-.28-1.22-.44-1.82,0-.14-.07-.27-.1-.4-.17-.61-.34-1.22-.53-1.83,0-.13-.09-.26-.13-.4-.17-.51-.34-1-.52-1.52-.09-.23-.17-.45-.26-.67l-.48-1.23c-.1-.25-.21-.49-.31-.72l-.51-1.15c-.12-.24-.23-.48-.34-.72-.26-.53-.52-1.06-.8-1.58v0c-.3-.55-.61-1.1-.92-1.64-.07-.12-.14-.24-.22-.36q-.48-.81-1-1.59s-.07-.1-.1-.16c-.36-.54-.72-1.07-1.1-1.59l-.08-.12c-.39-.54-.8-1.07-1.21-1.6l-.08-.1c-.42-.52-.84-1-1.28-1.54l-.07-.08c-.44-.51-.89-1-1.36-1.5l0,0c-.47-.49-.95-1-1.44-1.45l0,0c-.49-.47-1-.92-1.48-1.36l-.06-.06c-.51-.44-1-.87-1.54-1.29l-.05,0c-.52-.41-1-.82-1.59-1.21l0,0c-.54-.39-1.08-.77-1.64-1.13l-.06,0q-.83-.55-1.68-1l-.05,0c-.58-.34-1.16-.67-1.74-1l0,0q-.89-.46-1.8-.9h0c-.6-.28-1.2-.54-1.82-.79l0,0c-.61-.25-1.21-.48-1.82-.69l-.06,0c-.61-.21-1.22-.41-1.83-.59l-.08,0c-.61-.18-1.23-.34-1.85-.49l-.07,0c-.62-.15-1.25-.28-1.87-.4H268c-.63-.12-1.26-.22-1.9-.3h-.07c-.63-.08-1.27-.15-1.91-.2h-.07c-.66,0-1.32-.08-2-.1h-1.82l-.52,0"/><polyline class="cls-16" points="229.97 195.89 229.97 195.89 304.53 209.74 304.13 176.16 229.93 195.88 229.97 195.89 229.97 195.88"/><path class="cls-17" d="M304.56,209.29v.45l21.57-7.7h0l15.08-5.38h0l43.44-15.51,1.08-53.93v-1.13c0-.13,0-.25,0-.38a1.21,1.21,0,0,0,0-.19v-.09a1.93,1.93,0,0,0,0-.24l0-.53,0-.52,0-.34v-.08s0-.07,0-.1c0-.21,0-.42-.07-.63s0-.42-.08-.63l0-.24,0-.13c0-.09,0-.17,0-.25s-.07-.41-.11-.62-.07-.38-.11-.57,0-.18-.05-.27l0-.16c-.08-.34-.15-.67-.23-1l-.08-.26a2.81,2.81,0,0,0-.08-.31c0-.14-.07-.27-.11-.41-.09-.33-.19-.65-.29-1v0c0-.1-.07-.21-.11-.31-.11-.34-.22-.69-.35-1l-.06-.16-.21-.52-.26-.66c0-.1-.09-.2-.13-.29l-.09-.23-.16-.33-.21-.48-.21-.41c-.09-.19-.18-.38-.28-.56a3.18,3.18,0,0,0-.16-.32c-.16-.31-.33-.61-.5-.91v0c-.17-.29-.34-.59-.52-.88l-.25-.39-.17-.28-.14-.22-.59-.87-.1-.14-.09-.12-.21-.3c-.13-.19-.27-.37-.41-.55l-.3-.39-.07-.09-.05-.07-.44-.54-.37-.45-.16-.18-.07-.08-.15-.17-.38-.44-.4-.42-.15-.16-.05-.06-.15-.16-.36-.37-.37-.36-.28-.27,0,0h0l-.06-.06-.26-.24-.26-.24-.27-.24-.26-.24-.12-.1,0,0-.14-.12-.29-.24a3.47,3.47,0,0,0-.29-.25l-.29-.24-.26-.2-.05,0-.08-.06-.39-.31-.39-.3-.4-.29-.06,0-.05,0-.27-.2-.38-.26-.38-.26-.34-.22,0,0,0,0-.38-.24-.38-.24-.38-.23-.26-.15-.05,0-.08-.05L368,97.5l-.38-.21-.37-.21L367,97l0,0-.08,0-.38-.19-.37-.19-.38-.18-.31-.15h0l0,0L365,96l-.38-.17-.38-.16-.38-.16h0l-.37-.15-.38-.15-.39-.14-.38-.15-.07,0h0l-.28-.11-.39-.13-.4-.13-.39-.13-.14,0h0l-.21-.07-.4-.12-.41-.11-.4-.11-.19,0h-.06l-.17,0-.41-.1-.42-.1-.43-.09-.21,0-.06,0-.15,0-.44-.08-.43-.08-.43-.08-.22,0h-.07l-.18,0-.47-.07-.47-.06-.47-.06h-.16l-.34,0-.5,0-.51,0-.35,0h-.16l-.41,0-.42,0h-.84l-4.08.19-83.92,3.82c.66,0,1.32,0,2,.1h.06c.64,0,1.28.12,1.91.2h.07c.64.08,1.27.18,1.9.3h.09c.63.12,1.25.25,1.87.4l.08,0c.62.15,1.23.31,1.85.49l.07,0c.61.19,1.22.38,1.83.6l.06,0c.61.21,1.22.44,1.82.69h0c.61.25,1.22.52,1.82.8h0c.61.29,1.21.59,1.81.9l0,0c.59.31,1.17.63,1.74,1l.05,0q.86.51,1.68,1l.07,0c.55.37,1.1.75,1.64,1.14l0,0c.53.39,1.06.79,1.58,1.21l.05,0c.53.42,1,.85,1.54,1.29l.06,0c.5.45,1,.9,1.48,1.36l0,0c.49.47,1,.95,1.43,1.45l0,0c.47.49.92,1,1.37,1.5l.06.08c.44.5.87,1,1.28,1.54l.09.1c.41.53.81,1.06,1.2,1.6l.09.12c.37.52.74,1,1.09,1.59l.11.16q.51.78,1,1.59l.21.36c.32.54.63,1.09.92,1.64v0h0c.28.53.54,1.06.8,1.59.12.24.23.48.34.72s.35.76.51,1.14.21.48.31.72q.25.61.48,1.23c.09.23.18.45.26.67.18.51.35,1,.52,1.53l.13.4c.19.6.37,1.21.53,1.82,0,.14.07.27.11.4.15.61.3,1.21.43,1.82,0,.12,0,.24.08.36.12.61.24,1.22.34,1.84l0,.17c.11.68.2,1.37.28,2.05v.1c.08.7.14,1.39.18,2.09v.11c0,.72.07,1.45.08,2.17l.42,34.92.4,33.13"/><path class="cls-18" d="M230.11,195.9l-17,43.4,0,.08,0,.08,0,.08,0,.08c0,.12-.08.24-.13.36l-.12.35-.11.32h0v0c0,.12-.07.24-.11.36s-.07.22-.1.33-.07.23-.1.34,0,.21-.08.31h0v0l-.09.34c0,.11,0,.22-.08.33s-.05.22-.07.33-.05.23-.07.34,0,.22-.07.33a2.56,2.56,0,0,1,0,.27c0,.09,0,.19,0,.28s0,.18,0,.27l0,.23h0v0l0,.27a2.51,2.51,0,0,0,0,.27l0,.27a2.45,2.45,0,0,0,0,.27,1.79,1.79,0,0,0,0,.23v.1l0,.33c0,.11,0,.22,0,.33s0,.22,0,.32,0,.2,0,.29v.06c0,.11,0,.22,0,.34v.68a2.81,2.81,0,0,1,0,.29v0c0,.11,0,.22,0,.34s0,.22,0,.33l0,.34c0,.1,0,.2,0,.3h0v0c0,.11,0,.22,0,.34l0,.33c0,.12,0,.23,0,.34s0,.22.05.33h0c0,.11,0,.23.05.34l.06.34.06.34c0,.11,0,.22.07.33h0c0,.12,0,.24.07.35s.05.23.08.35,0,.23.08.34l.08.29v.07c0,.11.06.23.1.35s.06.23.1.35.07.23.1.35,0,.14.07.21v0s0,.08,0,.12l.12.37c0,.12.08.24.13.36s.08.25.13.37l0,.08v0l.11.27.15.38c.05.13.1.26.16.39a2.14,2.14,0,0,0,.1.22l0,.05s0,.07,0,.11l.19.4c.06.14.12.27.19.4s.11.23.16.34l0,0v0l.21.4.23.44.21.37v0h0l0,0c.08.15.17.29.25.43s.17.29.26.43.13.21.19.31l0,.08a.36.36,0,0,0,.07.1c.1.17.21.33.32.49a5.25,5.25,0,0,0,.33.49.61.61,0,0,0,.07.1l0,.07a3.46,3.46,0,0,0,.22.31l.46.63.13.17.12.14.23.3c.16.21.33.41.5.61l.12.14a1.34,1.34,0,0,0,.11.14l.21.24.07.08.56.62.16.17c.31.33.64.67,1,1l.27.25.8.75.3.28.2.17c.29.26.59.51.9.76h0c.38.31.78.61,1.17.91l.34.26,1,.68.31.22.14.1c.37.25.75.49,1.14.73l.26.16c.36.22.72.44,1.09.65l.4.23c.39.21.78.43,1.18.63l.23.12.07,0,1.37.67.39.17c.38.18.77.34,1.16.51l.43.18c.51.21,1,.41,1.56.61l.49.17.06,0,.08,0,.38.12.09,0h.05l.51.17h0l.56.17h0c.63.2,1.27.39,1.91.56h.06c.63.17,1.25.32,1.88.46l.07,0c.63.14,1.26.27,1.89.38l.08,0,1.88.3h.08c.63.08,1.26.16,1.89.22h.07l1.89.15H249c.63,0,1.26.06,1.9.07h2c.65,0,1.3-.05,1.94-.09h0c.63,0,1.26-.09,1.89-.16h.06c.62-.07,1.24-.14,1.86-.23h.06c.62-.09,1.23-.2,1.84-.31h0c.6-.11,1.2-.24,1.8-.38h.06c.6-.14,1.19-.29,1.78-.45l.07,0c.58-.16,1.16-.33,1.73-.52h.05c.58-.19,1.15-.39,1.72-.6h.05q.84-.31,1.65-.66l.09,0c.53-.22,1.06-.46,1.58-.71l.11,0q.78-.37,1.53-.78l.11-.05c.48-.26,1-.53,1.43-.81l.14-.08c.45-.27.89-.56,1.32-.84l.29-.2c.43-.29.86-.59,1.27-.9h0c.39-.29.76-.59,1.14-.9l.49-.41c.26-.22.52-.44.77-.67l.46-.42c.26-.24.51-.49.76-.74l.4-.41c.3-.3.58-.62.86-.94l.22-.24c.33-.38.64-.77.94-1.16l.2-.25c.29-.39.58-.78.85-1.18l.15-.24c.27-.4.52-.81.77-1.22a.75.75,0,0,1,.07-.12c.26-.45.52-.92.76-1.39l0-.07c.24-.48.46-1,.67-1.46l0-.07c.22-.51.42-1,.6-1.55l.87-2.52,7.84-22.61,8.23-23.74Z"/><polygon class="cls-19" points="314.9 205.95 314.81 254.88 314.73 301.51 325.93 307.61 326.03 254.78 326.13 201.94 314.9 205.95"/><polygon class="cls-20" points="326.13 201.93 326.03 254.76 325.93 307.6 341 305.48 341.09 254.96 341.2 196.55 326.13 201.93"/><circle class="cls-21" cx="337.53" cy="148" r="14.24"/><path class="cls-22" d="M412.64,79.43c.32-14.8-12.06-26.78-26.86-26.78H338.11c-14.05,0-26.42,11.47-26.78,25.52a26.2,26.2,0,0,0,21.23,26.42A21.06,21.06,0,0,1,345.65,113c3.62,5.06,6,12.09.93,19.73a79.61,79.61,0,0,1-10.47,12.16,3.56,3.56,0,0,0,4.19,5.67c10.34-5.55,20.78-12.31,25.14-18.75,7.24-10.67,9.83-19.74,23.71-26.92h0A26.36,26.36,0,0,0,412.64,79.43Z"/><path class="cls-21" d="M390.78,78.76c.2,8.74-13.53,8.85-13.47.11C377.12,70.13,390.84,70,390.78,78.76Z"/><path class="cls-21" d="M369,78.83c.11,8.73-13.61,8.71-13.47,0C355.42,70.07,369.14,70.09,369,78.83Z"/><path class="cls-21" d="M347.22,78.83c.1,8.74-13.62,8.71-13.47,0C333.64,70.06,347.36,70.09,347.22,78.83Z"/><g class="cls-23"><path class="cls-24" d="M257.86,160.36c-.15,0-3.59-.29-9-1.22l.62-3.62c5.2.9,8.61,1.17,8.64,1.18Zm-17.75-3c-3-.7-5.87-1.49-8.66-2.34l1.08-3.52c2.71.83,5.54,1.6,8.42,2.28ZM223,152c-2.88-1.14-5.65-2.38-8.21-3.69l1.67-3.28c2.46,1.26,5.12,2.45,7.89,3.55Zm-16-8.26a58.18,58.18,0,0,1-7.16-5.63l2.5-2.7a55.29,55.29,0,0,0,6.71,5.28Zm-13.27-12.46a40.13,40.13,0,0,1-4.55-8l3.39-1.43a36.87,36.87,0,0,0,4.13,7.28Zm-7.09-16.86a43,43,0,0,1-.56-7c0-.72,0-1.46,0-2.2l3.68.17c0,.69-.05,1.36-.05,2a39,39,0,0,0,.51,6.37Zm4.74-17.12-3.48-1.19a54.23,54.23,0,0,1,3.67-8.38l3.23,1.76A50.58,50.58,0,0,0,191.32,97.34ZM221,94.6h-.17a36.26,36.26,0,0,1-6.56-.48l.71-3.61a33.34,33.34,0,0,0,5.87.41H221c.78,0,1.55,0,2.28-.09l.3,3.66C222.72,94.56,221.85,94.6,221,94.6Zm11.76-2.84-1.9-3.15a10.57,10.57,0,0,0,4.69-5.7L239,84.09A14.16,14.16,0,0,1,232.73,91.76Zm-27.18-.94a40.21,40.21,0,0,1-7.8-4.95L200.08,83a36.78,36.78,0,0,0,7.09,4.49Zm-6.08-8.29-2.81-2.36a37.24,37.24,0,0,1,6.77-6.32l2.14,3A34.37,34.37,0,0,0,199.47,82.53Zm-7.91-3.77a21.82,21.82,0,0,1-2.9-9.1l3.67-.33a18.06,18.06,0,0,0,2.41,7.57ZM235,76a9.85,9.85,0,0,0-5.82-4.36l1-3.54a13.57,13.57,0,0,1,8,6ZM212.9,73l-1.24-3.46a35.8,35.8,0,0,1,9.06-1.94l.31,3.67A31.69,31.69,0,0,0,212.9,73ZM193.13,61.24l-3.55-1a42.29,42.29,0,0,1,3.4-8.56l3.27,1.7A38.39,38.39,0,0,0,193.13,61.24Zm7.61-15.11-3-2.12c1.74-2.47,3.54-4.88,5.34-7.15L206,39.14C204.2,41.36,202.45,43.71,200.74,46.13Zm10.83-13.64L208.84,30c2-2.27,4.13-4.44,6.22-6.44l2.55,2.65C215.58,28.19,213.55,30.29,211.57,32.49Zm12.54-12-2.31-2.86a87.72,87.72,0,0,1,7.29-5.3l2,3.09A82.51,82.51,0,0,0,224.11,20.51Zm14.45-9.29L237,7.91a52.1,52.1,0,0,1,8.55-3.26l1,3.54A48.66,48.66,0,0,0,238.56,11.22Z"/></g><path class="cls-25" d="M148,280.56c16.53-10.18,39.48-.54,57.51,6.65,13.35,5.32,16,6.51,29.72,10.14s64.13,5.33,79.64,4.17l11.05,6.09c-20.31-1.81-59-2.77-79.34-1.88-13.48.59-44.47,3.84-58.1,6.87-35.49,7.87-74,29.48-110.24,26.1C78.25,338.7,104.7,307.22,148,280.56Z"/></g></g></svg>