<?xml version="1.0" encoding="UTF-8"?>
<svg width="272px" height="272px" viewBox="0 0 272 272" version="1.1" xmlns="http://www.w3.org/2000/svg" xmlns:xlink="http://www.w3.org/1999/xlink">
    <!-- Generator: Sketch 63.1 (92452) - https://sketch.com -->
    <title>编组 5</title>
    <desc>Created with Sketch.</desc>
    <g id="标签中心-数据查询(可视化模式)" stroke="none" stroke-width="1" fill="none" fill-rule="evenodd">
        <g id="群体洞察-微观画像-特征分析-标签分析" transform="translate(-621.000000, -407.000000)">
            <g id="编组-5" transform="translate(621.000000, 407.000000)">
                <circle id="椭圆形" fill="#EAFAFF" cx="136" cy="136" r="136"></circle>
                <g id="编组" transform="translate(62.000000, 31.000000)" fill="#46D1FF" fill-rule="nonzero">
                    <path d="M74.1277466,43.8830119 C84.1325615,43.8830119 92.1927066,35.7972791 92.1927066,25.7668764 C92.1927066,15.7876492 84.1069738,7.65074084 74.1277466,7.65074084 C64.1229316,7.65074084 56.0116111,15.7364736 56.0116111,25.7668764 C56.0371988,35.7461035 64.1229316,43.8830119 74.1277466,43.8830119 L74.1277466,43.8830119 Z" id="路径"></path>
                    <path d="M145.77348,15.6597104 C149.304591,11.9494849 149.151065,6.11547512 145.466427,2.58436396 C141.756202,-0.946747195 135.896604,-0.793220623 132.391081,2.89141711 L87.5613216,47.9258783 L61.1547512,47.9258783 L16.1202901,2.89141711 C12.5891789,-0.818808385 6.75516917,-0.972334957 3.04494368,2.58436396 C-0.665281812,6.14106288 -0.818808385,11.9494849 2.73789054,15.6597104 L49.7937849,62.792368 L49.7937849,219.082418 C49.7937849,224.711726 54.3484065,229.266348 59.9777142,229.266348 C65.6070218,229.266348 70.1616435,224.711726 70.1616435,219.082418 L70.1616435,134.310163 L78.4009028,134.310163 L78.4776661,219.082418 C78.4776661,224.711726 83.0322878,229.266348 88.6615954,229.266348 C94.290903,229.266348 98.8455247,224.711726 98.8455247,219.082418 L98.7687614,62.792368 L145.77348,15.6597104 Z" id="形状"></path>
                </g>
            </g>
        </g>
    </g>
</svg>