<svg id="图层_1" data-name="图层 1" xmlns="http://www.w3.org/2000/svg" viewBox="0 0 40 40"><defs><style>.cls-1{fill:#0078ff;}</style></defs><title>全部表</title><path class="cls-1" d="M4.31,18.32h0l.29,0H15.9A2.35,2.35,0,0,0,18.25,16V4.36A2.36,2.36,0,0,0,15.9,2H4.31A2.36,2.36,0,0,0,2,4.36V16A2.36,2.36,0,0,0,4.31,18.32ZM4.73,4.81H15.45V15.52H4.73Z"/><path class="cls-1" d="M24,18.32h0l.3,0H35.59A2.36,2.36,0,0,0,38,16V4.36A2.36,2.36,0,0,0,35.59,2H24a2.36,2.36,0,0,0-2.36,2.36V16A2.36,2.36,0,0,0,24,18.32Zm.43-13.51H35.15V15.52H24.43Z"/><path class="cls-1" d="M16,21.67l-.29,0H4.41a2.35,2.35,0,0,0-2.35,2.35V35.64A2.36,2.36,0,0,0,4.41,38H16a2.36,2.36,0,0,0,2.36-2.36V24A2.36,2.36,0,0,0,16,21.67ZM15.58,35.2H4.86V24.48H15.58Z"/><path class="cls-1" d="M29.7,21.51A8.25,8.25,0,1,0,38,29.75,8.25,8.25,0,0,0,29.7,21.51ZM35,29.75a5.33,5.33,0,1,1-5.33-5.32A5.33,5.33,0,0,1,35,29.75Z"/></svg>