<svg id="图层_1" data-name="图层 1" xmlns="http://www.w3.org/2000/svg" viewBox="0 0 40 40"><defs><style>.cls-1{fill:#7f7f7f;}</style></defs><title>非叶子类目</title><path class="cls-1" d="M10.35,2H5.71a4.16,4.16,0,0,0-2.19.38A2.6,2.6,0,0,0,2.43,3.47a4.16,4.16,0,0,0-.38,2.19v4.65A8.31,8.31,0,1,0,10.35,2Zm5.34,8.31a5.28,5.28,0,0,1-.89,2.92l-2.65-2.66v-3a1.18,1.18,0,0,0-2.35,0l0,.66L8.39,6.82a1.2,1.2,0,0,0-.83-.35,1.16,1.16,0,0,0-.83.35,1.19,1.19,0,0,0,0,1.66l3.2,3.16H8.66a1.17,1.17,0,1,0,0,2.34h3.57l.87.87a5.27,5.27,0,0,1-2.74.78A5.33,5.33,0,0,1,5,10.31V5.66c0-.29,0-.51,0-.66l.67,0h4.64A5.33,5.33,0,0,1,15.69,10.31Z"/><path class="cls-1" d="M17.14,21.77A4.06,4.06,0,0,0,15,21.39H10.31a8.31,8.31,0,1,0,8.31,8.3V25.05a4,4,0,0,0-.39-2.19A2.55,2.55,0,0,0,17.14,21.77ZM5,29.69a5.33,5.33,0,0,1,5.32-5.32h5.26l0,0h.07c0,.15,0,.35,0,.64v4.64A5.33,5.33,0,1,1,5,29.69Z"/><path class="cls-1" d="M22.86,18.27a4,4,0,0,0,2.19.39h4.64a8.31,8.31,0,1,0-8.31-8.31V15a4,4,0,0,0,.39,2.19A2.5,2.5,0,0,0,22.86,18.27Zm6.83-2.59H25.05a5.28,5.28,0,0,1-.66,0,5.76,5.76,0,0,1,0-.66V10.35a5.33,5.33,0,1,1,5.32,5.33Z"/><path class="cls-1" d="M29.6,21.39H25a4,4,0,0,0-2.19.38,2.57,2.57,0,0,0-1.1,1.09,4.16,4.16,0,0,0-.38,2.19v4.64a8.31,8.31,0,1,0,8.31-8.3ZM29.6,35a5.33,5.33,0,0,1-5.33-5.33V25.05c0-.3,0-.51,0-.66a6,6,0,0,1,.67,0H29.6A5.33,5.33,0,1,1,29.6,35Z"/></svg>