<svg xmlns="http://www.w3.org/2000/svg" viewBox="0 0 40 40"><defs><style>.cls-1{fill:rgba(0, 0, 0, 0.45);}</style></defs><title>画板 4</title><g id="图层_6" data-name="图层 6"><path class="cls-1" d="M34.5,34.32l.09-20.15a5.7,5.7,0,0,0-1.65-4L24.57,1.69a5.75,5.75,0,0,0-8.09-.05L8.05,10a5.79,5.79,0,0,0-1.69,4L6.27,34.21A5.73,5.73,0,0,0,12,39.94L28.77,40a5.71,5.71,0,0,0,5.73-5.68Zm-5.73,3L12,37.25a3,3,0,0,1-3-3L9,14.06a3,3,0,0,1,.9-2.14l8.43-8.37a3,3,0,0,1,4.27,0L31,12a3,3,0,0,1,.88,2.14L31.8,34.32a3,3,0,0,1-3,3Z"/><path class="cls-1" d="M20.36,13.44a5.37,5.37,0,1,0,5.41,5.32A5.37,5.37,0,0,0,20.36,13.44Zm1.94,7.25a2.68,2.68,0,1,1,0-3.79,2.68,2.68,0,0,1,0,3.79Z"/></g></svg>