<svg xmlns="http://www.w3.org/2000/svg" viewBox="0 0 40 40"><defs><style>.cls-1{fill:rgba(0, 0, 0, 0.45);}</style></defs><title>画板 10</title><g id="图层_10" data-name="图层 10"><path class="cls-1" d="M36.2,10H21a.67.67,0,0,1-.63-.7V6a1.91,1.91,0,0,0-1.8-2H3.81A1.9,1.9,0,0,0,2,6V34a1.91,1.91,0,0,0,1.8,2H36.2A1.91,1.91,0,0,0,38,34V12A1.91,1.91,0,0,0,36.2,10ZM4,15.3,4,6.7A.66.66,0,0,1,4.63,6H17.76a.66.66,0,0,1,.63.7v3.79A1.43,1.43,0,0,0,19.74,12H35.57a.66.66,0,0,1,.63.7V15.3a.66.66,0,0,1-.63.7H4.65A.67.67,0,0,1,4,15.3Z"/></g></svg>