<svg id="图层_1" data-name="图层 1" xmlns="http://www.w3.org/2000/svg" viewBox="0 0 40 40"><title>xiangshangzhankai</title><path d="M32.07,2H7.93A5.94,5.94,0,0,0,2,7.94V32.07A5.93,5.93,0,0,0,7.92,38H32.07A5.94,5.94,0,0,0,38,32.07V7.93A5.94,5.94,0,0,0,32.07,2ZM4.81,7.94a3.13,3.13,0,0,1,.91-2.21,3.18,3.18,0,0,1,2.21-.92H32.07a3.12,3.12,0,0,1,3.12,3.13V32.07a3.11,3.11,0,0,1-3.12,3.12H7.93a3.11,3.11,0,0,1-3.12-3.12Z" style="fill:#7f7f7f"/><path d="M12.46,25.2a1.37,1.37,0,0,0,1-.41L20.23,18l6.29,6.75a1.42,1.42,0,0,0,1.07.49,1.53,1.53,0,0,0,.3,0,1.41,1.41,0,0,0,.68-2.39L21.3,15a1.39,1.39,0,0,0-1-.45,1.34,1.34,0,0,0-1,.41L11.46,22.8a1.41,1.41,0,0,0,0,2A1.39,1.39,0,0,0,12.46,25.2Z" style="fill:#7f7f7f"/></svg>