<svg id="图层_1" data-name="图层 1" xmlns="http://www.w3.org/2000/svg" viewBox="0 0 40 40"><title>xiangxiazhankai</title><path d="M7.93,38H32.07A5.94,5.94,0,0,0,38,32.06V7.93A5.93,5.93,0,0,0,32.08,2H7.93A5.94,5.94,0,0,0,2,7.93V32.07A5.94,5.94,0,0,0,7.93,38Zm27.26-5.94a3.13,3.13,0,0,1-.91,2.21,3.18,3.18,0,0,1-2.21.92H7.93a3.12,3.12,0,0,1-3.12-3.13V7.93A3.11,3.11,0,0,1,7.93,4.81H32.07a3.11,3.11,0,0,1,3.12,3.12Z" style="fill:#7f7f7f"/><path d="M27.54,14.8a1.37,1.37,0,0,0-1,.41L19.77,22l-6.29-6.75a1.42,1.42,0,0,0-1.07-.49l-.3,0a1.41,1.41,0,0,0-.68,2.39L18.7,25a1.39,1.39,0,0,0,1,.45,1.34,1.34,0,0,0,1-.41l7.82-7.81a1.41,1.41,0,0,0,0-2A1.39,1.39,0,0,0,27.54,14.8Z" style="fill:#7f7f7f"/></svg>