<svg id="图层_1" data-name="图层 1" xmlns="http://www.w3.org/2000/svg" viewBox="0 0 40 40"><title>xiazai</title><path d="M36.11,24.91a1.73,1.73,0,0,0-1.39,1.74v6.2a1.85,1.85,0,0,1-1.85,1.85H7.13a1.85,1.85,0,0,1-1.85-1.85v-6.2a1.73,1.73,0,0,0-1.4-1.74A1.64,1.64,0,0,0,2,26.53v6.35A5.09,5.09,0,0,0,7.1,38H32.9A5.09,5.09,0,0,0,38,32.88V26.53A1.64,1.64,0,0,0,36.11,24.91Z" style="fill:#7f7f7f"/><path d="M18.79,29.52a1.65,1.65,0,0,0,2.42,0l8-8.75a1.64,1.64,0,1,0-2.42-2.22l-5.1,5.65V3.64a1.64,1.64,0,0,0-3.28,0V24.2l-5.2-5.64a1.65,1.65,0,1,0-2.42,2.23Z" style="fill:#7f7f7f"/></svg>