<svg id="图层_1" data-name="图层 1" xmlns="http://www.w3.org/2000/svg" viewBox="0 0 40 40"><defs><style>.cls-1{fill:#7f7f7f;}</style></defs><title>暂停</title><path class="cls-1" d="M20,0A20,20,0,1,0,40,20,20,20,0,0,0,20,0Zm0,36.92A16.92,16.92,0,1,1,36.92,20,16.94,16.94,0,0,1,20,36.92Z"/><path class="cls-1" d="M16.34,12.33a1.39,1.39,0,0,0-1.48,1.28V26.39a1.38,1.38,0,0,0,1.47,1.28,1.39,1.39,0,0,0,1.48-1.28V13.61a1.39,1.39,0,0,0-1.48-1.28Zm7.33,0a1.39,1.39,0,0,0-1.48,1.28V26.39a1.49,1.49,0,0,0,2.95,0V13.61a1.38,1.38,0,0,0-1.47-1.28Z"/></svg>